<?xml version="1.0" encoding="UTF-8" standalone="no"?>
<!-- Created with Inkscape (http://www.inkscape.org/) -->

<svg
   xmlns:dc="http://purl.org/dc/elements/1.1/"
   xmlns:cc="http://creativecommons.org/ns#"
   xmlns:rdf="http://www.w3.org/1999/02/22-rdf-syntax-ns#"
   xmlns:svg="http://www.w3.org/2000/svg"
   xmlns="http://www.w3.org/2000/svg"
   xmlns:sodipodi="http://sodipodi.sourceforge.net/DTD/sodipodi-0.dtd"
   xmlns:inkscape="http://www.inkscape.org/namespaces/inkscape"
   version="1.1"
   id="svg3727"
   width="576.03595"
   height="130.49809"
   viewBox="0 0 576.03595 130.49809"
   sodipodi:docname="gmdice-logo.svg"
   inkscape:version="0.92.4 (5da689c313, 2019-01-14)">
  <metadata
     id="metadata3733">
    <rdf:RDF>
      <cc:Work
         rdf:about="">
        <dc:format>image/svg+xml</dc:format>
        <dc:type
           rdf:resource="http://purl.org/dc/dcmitype/StillImage" />
        <dc:title></dc:title>
      </cc:Work>
    </rdf:RDF>
  </metadata>
  <defs
     id="defs3731" />
  <sodipodi:namedview
     pagecolor="#ffffff"
     bordercolor="#666666"
     borderopacity="1"
     objecttolerance="10"
     gridtolerance="10"
     guidetolerance="10"
     inkscape:pageopacity="0"
     inkscape:pageshadow="2"
     inkscape:window-width="1920"
     inkscape:window-height="1017"
     id="namedview3729"
     showgrid="false"
     inkscape:lockguides="true"
     inkscape:zoom="1.1667262"
     inkscape:cx="479.56704"
     inkscape:cy="-40.637869"
     inkscape:window-x="-8"
     inkscape:window-y="-8"
     inkscape:window-maximized="1"
     inkscape:current-layer="svg3727"
     showguides="true"
     inkscape:guide-bbox="true">
    <sodipodi:guide
       position="25.530303,39.469697"
       orientation="0,1"
       id="guide3857"
       inkscape:locked="true" />
    <sodipodi:guide
       position="21.212121,42.424243"
       orientation="1,0"
       id="guide3859"
       inkscape:locked="true" />
    <sodipodi:guide
       position="52.045454,62.575758"
       orientation="0,1"
       id="guide3861"
       inkscape:locked="true" />
    <sodipodi:guide
       position="46.136364,48.939394"
       orientation="1,0"
       id="guide3865"
       inkscape:locked="true" />
    <sodipodi:guide
       position="34.393939,51.590909"
       orientation="1,0"
       id="guide3867"
       inkscape:locked="true" />
    <sodipodi:guide
       position="34.393939,51.590909"
       orientation="0,1"
       id="guide3869"
       inkscape:locked="true" />
  </sodipodi:namedview>
  <path
     style="fill:#ffffff;stroke-width:0.54863149"
     d="M 57.063214,0.00598159 C 50.511705,0.17913598 44.518335,4.1115551 30.250714,12.039185 -1.8994897,29.903054 -0.1550181,26.687884 0.0964169,67.603638 c 0.231817,37.723732 -1.7579172,34.176292 27.0507811,48.222652 20.677773,10.08193 24.818118,11.75416 33.261719,13.44336 14.927568,2.98633 20.025064,1.32059 42.718743,-13.96484 16.90233,-11.38465 16.46761,-11.03011 18.52539,-15.11133 3.26762,-6.480826 3.48726,-8.935829 3.31055,-37.054686 C 124.72539,25.238874 126.24659,27.36113 87.22337,10.535279 70.723217,3.4208174 63.614723,-0.16717279 57.063214,0.00598159 Z M 60.641339,23.004029 a 5,5.5 0 0 1 5,5.5 5,5.5 0 0 1 -5,5.5 5,5.5 0 0 1 -5,-5.5 5,5.5 0 0 1 5,-5.5 z M 21.018292,52.171997 a 5,5.5 0 0 1 5,5.5 5,5.5 0 0 1 -5,5.5 5,5.5 0 0 1 -5,-5.5 5,5.5 0 0 1 5,-5.5 z m 24.962891,10.072266 a 5,5.5 0 0 1 5,5.5 5,5.5 0 0 1 -5,5.5 5,5.5 0 0 1 -5,-5.5 5,5.5 0 0 1 5,-5.5 z m 40.425781,0.240234 a 5,5.5 0 0 1 5,5.5 5,5.5 0 0 1 -5,5.5 5,5.5 0 0 1 -5,-5.5 5,5.5 0 0 1 5,-5.5 z M 34.303448,73.353638 a 5,5.5 0 0 1 5,5.5 5,5.5 0 0 1 -5,5.5 5,5.5 0 0 1 -5,-5.5 5,5.5 0 0 1 5,-5.5 z m 65.736322,0.0059 a 5,5.5 0 0 1 5,5.5 5,5.5 0 0 1 -5,5.5 5,5.5 0 0 1 -4.999994,-5.5 5,5.5 0 0 1 4.999994,-5.5 z M 21.321026,85.357544 a 5,5.5 0 0 1 5,5.5 5,5.5 0 0 1 -5,5.5 5,5.5 0 0 1 -5,-5.5 5,5.5 0 0 1 5,-5.5 z M 113.67259,85.5177 a 5,5.5 0 0 1 5,5.5 5,5.5 0 0 1 -5,5.5 5,5.5 0 0 1 -5,-5.5 5,5.5 0 0 1 5,-5.5 z M 46.283917,95.857544 a 5,5.5 0 0 1 5,5.499996 5,5.5 0 0 1 -5,5.5 5,5.5 0 0 1 -5,-5.5 5,5.5 0 0 1 5,-5.499996 z"
     id="path3821-6"
     inkscape:connector-curvature="0" />
  <g
     aria-label="gmdice"
     style="font-style:normal;font-variant:normal;font-weight:normal;font-stretch:normal;font-size:28.5552845px;line-height:1.25;font-family:'GT Walsheim';-inkscape-font-specification:'GT Walsheim';letter-spacing:0px;word-spacing:0px;fill:#ffffff;fill-opacity:1;stroke:none;stroke-width:0.71388209"
     id="text3841"
     transform="translate(-21.772457,-164.5101)">
    <path
       d="m 237.90954,200.47833 c 0,-4.98005 14.90961,-4.97995 14.94013,0 0.16633,27.13602 0,61.13115 0,61.13115 0,12.79277 -3.83783,21.97615 -11.5135,27.55014 -5.02573,3.74645 -12.33588,5.61968 -21.93045,5.61968 -9.32045,0 -16.81335,-1.91892 -22.47872,-5.75675 -6.48777,-4.38609 -10.76176,-9.76657 -10.14284,-17.4073 0.42052,-5.19148 13.4827,-4.89784 15.62545,0 4.16074,9.51051 6.99033,10.82816 16.85904,10.82816 6.30501,0 10.96523,-1.55341 13.98067,-4.66022 3.10681,-3.01544 4.66022,-8.04117 4.66022,-15.07719 v -6.99033 c -1.82754,3.10681 -4.70591,5.61968 -8.63512,7.53859 -3.83783,1.82754 -7.76703,2.74131 -11.78762,2.74131 -9.68595,0 -17.36161,-3.1525 -23.02698,-9.45751 -5.57399,-6.39639 -8.36099,-14.43756 -8.36099,-24.1235 0,-9.59458 2.92406,-17.59006 8.77218,-23.98644 5.9395,-6.39639 13.61516,-9.59458 23.02699,-9.59458 4.29471,0 8.22392,0.91377 11.78762,2.74131 3.5637,1.82754 6.30501,4.3404 8.22392,7.53859 0,0 0,0 0,-8.63511 z m -21.25999,51.91887 c 5.84812,0 10.46265,-1.91892 13.8436,-5.75675 3.38095,-3.92921 4.46536,-7.25703 4.46536,-13.01377 0,-5.75675 -1.08441,-12.06919 -4.46536,-15.90702 -3.38095,-3.9292 -7.99548,-5.89381 -13.8436,-5.89381 -5.57399,0 -10.09715,1.91892 -13.56947,5.75675 -3.38095,3.74645 -5.07142,8.58943 -5.07142,14.52893 0,5.93949 1.69047,10.82816 5.07142,14.66599 3.47232,3.74645 7.99548,5.61968 13.56947,5.61968 z"
       style="font-style:normal;font-variant:normal;font-weight:normal;font-stretch:normal;font-size:137.06536865px;font-family:'GT Walsheim';-inkscape-font-specification:'GT Walsheim';stroke-width:0.71388209;fill:#ffffff"
       id="path21"
       inkscape:connector-curvature="0"
       sodipodi:nodetypes="ssscscssscsccscscsscsscscscscs" />
    <path
       d="m 260.01338,264.35078 c 0.39966,-21.41852 -0.2064,-39.1206 0,-63.87245 0.0415,-4.97987 14.96078,-4.98 14.94012,0 -0.0213,5.13023 0,8.90925 0,8.90925 1.46203,-3.10682 3.79215,-5.61969 6.99034,-7.5386 3.19819,-2.01029 6.80758,-3.01544 10.82816,-3.01544 10.14284,0 16.85904,3.79214 20.14861,11.37643 1.55341,-3.28957 4.11196,-5.98519 7.67566,-8.08686 3.5637,-2.19305 7.5386,-3.28957 11.92469,-3.28957 15.35132,0 23.02698,8.36099 23.02698,25.08296 0,0 0.43954,27.26747 0,40.43428 -0.16615,4.97727 -14.9118,4.97996 -14.94012,0 -0.0641,-11.27625 0,-37.5559 0,-37.5559 0,-10.14284 -3.9749,-15.21426 -11.92469,-15.21426 -4.20334,0 -7.49291,1.41634 -9.86871,4.24903 -2.3758,2.7413 -3.5637,7.62997 -3.5637,14.66599 0,0 -0.20208,22.54207 0,33.85514 0.0889,4.97925 -14.73068,4.97563 -14.94012,0 -0.39947,-9.49038 0,-37.69297 0,-37.69297 0,-10.05146 -3.88352,-15.07719 -11.65056,-15.07719 -4.29471,0 -7.67566,1.41634 -10.14284,4.24903 -2.3758,2.7413 -3.5637,7.62997 -3.5637,14.66599 0,0 0.10095,19.20874 0,33.85514 -0.0343,4.97992 -15.03303,4.97917 -14.94012,0 z"
       style="font-style:normal;font-variant:normal;font-weight:normal;font-stretch:normal;font-size:137.06536865px;font-family:'GT Walsheim';-inkscape-font-specification:'GT Walsheim';stroke-width:0.71388209;fill:#ffffff"
       id="path23"
       inkscape:connector-curvature="0"
       sodipodi:nodetypes="sssccsccsssssscssssscsss" />
    <path
       d="m 414.73667,168.43959 c 0.0659,-4.93391 14.8201,-4.93432 14.80306,0 -0.11264,32.61463 0.49342,69.69476 0,95.94575 -0.0927,4.93348 -14.89808,4.93344 -14.80306,0 0.0859,-4.45956 0,-8.63511 0,-8.63511 -1.91891,3.10681 -4.84298,5.61968 -8.77219,7.53859 -3.83783,1.82754 -7.76703,2.74131 -11.78762,2.74131 -9.96008,0 -17.68143,-3.1525 -23.16404,-9.45751 -5.48262,-6.30501 -8.22393,-14.34618 -8.22393,-24.1235 0,-9.68595 2.87837,-17.68143 8.63512,-23.98644 5.75675,-6.39638 13.4781,-9.59457 23.16405,-9.59457 4.29471,0 8.22392,0.91376 11.78762,2.7413 3.5637,1.82754 6.3507,4.34041 8.36099,7.5386 0,0 -0.20113,-25.65881 0,-40.70842 z m -21.39706,83.68914 c 6.12225,0 10.78247,-1.91892 13.98067,-5.75675 3.28956,-3.83783 4.93435,-8.6808 4.93435,-14.52892 0,-5.84812 -1.64479,-10.6911 -4.93435,-14.52893 -3.1982,-3.83783 -7.85842,-5.75674 -13.98067,-5.75674 -5.75675,0 -10.3256,1.91891 -13.70654,5.75674 -3.28957,3.74645 -4.93435,8.58943 -4.93435,14.52893 0,5.93949 1.64478,10.82816 4.93435,14.66599 3.38094,3.74645 7.94979,5.61968 13.70654,5.61968 z"
       style="font-style:normal;font-variant:normal;font-weight:normal;font-stretch:normal;font-size:137.06536865px;font-family:'GT Walsheim';-inkscape-font-specification:'GT Walsheim';stroke-width:0.71388209;fill:#ffffff"
       id="path25"
       inkscape:connector-curvature="0"
       sodipodi:nodetypes="ssssccssscsscsscscscscs" />
    <path
       d="m 455.83372,188.1773 c -2.10167,2.10167 -4.7516,3.1525 -7.94979,3.1525 -3.19819,0 -5.84812,-1.05083 -7.94979,-3.1525 -2.10167,-2.19304 -3.15251,-4.84298 -3.15251,-7.94979 0,-3.10682 1.05084,-5.71106 3.15251,-7.81273 2.10167,-2.19304 4.7516,-3.28957 7.94979,-3.28957 3.19819,0 5.84812,1.09653 7.94979,3.28957 2.10167,2.10167 3.1525,4.70591 3.1525,7.81273 0,3.10681 -1.05083,5.75675 -3.1525,7.94979 z m -15.35132,76.20834 c -0.50943,-21.72155 -1.3413,-41.96078 0,-63.87246 0.30148,-4.92513 14.51288,-4.92581 14.80306,0 1.34129,22.76878 0.50943,40.93879 0,63.87246 -0.10958,4.93314 -14.68737,4.933 -14.80306,0 z"
       style="font-style:normal;font-variant:normal;font-weight:normal;font-stretch:normal;font-size:137.06536865px;font-family:'GT Walsheim';-inkscape-font-specification:'GT Walsheim';stroke-width:0.71388209;fill:#ffffff"
       id="path27"
       inkscape:connector-curvature="0"
       sodipodi:nodetypes="cscscscscsssss" />
    <path
       d="m 497.83097,268.08544 c -9.77733,0 -17.54436,-3.06113 -23.30111,-9.18338 -5.66537,-6.21363 -8.49805,-14.34618 -8.49805,-24.39763 0,-10.05146 2.83268,-18.13832 8.49805,-24.26057 5.75675,-6.21363 13.52378,-9.32045 23.30111,-9.32045 8.77219,0 15.80821,2.23874 21.10807,6.7162 5.39124,4.3861 8.99502,12.00528 9.18338,17.68144 0.16517,4.9773 -12.94221,4.5617 -14.94013,0 -2.17903,-4.97522 -6.76189,-11.1023 -15.35132,-11.1023 -5.29986,0 -9.45751,1.78185 -12.47295,5.34555 -2.92406,3.47232 -4.38609,8.45237 -4.38609,14.94013 0,6.48775 1.46203,11.51348 4.38609,15.07718 3.01544,3.47233 7.17309,5.20849 12.47295,5.20849 8.49805,0 11.76924,-0.63316 15.35132,-10.41697 1.71216,-4.67647 15.07291,-4.97827 14.94013,0 -0.27839,10.43728 -3.79214,12.97552 -9.18338,17.27024 -5.29986,4.29471 -12.33588,6.44207 -21.10807,6.44207 z"
       style="font-style:normal;font-variant:normal;font-weight:normal;font-stretch:normal;font-size:137.06536865px;font-family:'GT Walsheim';-inkscape-font-specification:'GT Walsheim';stroke-width:0.71388209;fill:#ffffff"
       id="path29"
       inkscape:connector-curvature="0"
       sodipodi:nodetypes="scscscssscscssscs" />
    <path
       d="m 597.80841,231.21486 c 0,1.91891 -0.13707,4.66022 -0.4112,8.22392 H 549.9726 c 0.18275,5.02573 1.82754,8.90924 4.93435,11.65055 3.10681,2.64993 7.40153,3.9749 12.88414,3.9749 7.03603,0 10.9564,-0.74012 14.2548,-7.26447 2.84544,-5.62839 15.04041,-5.0256 15.07719,0 0.0467,6.38192 -4.24903,10.82817 -9.73164,14.666 -5.39123,3.74645 -11.92468,5.61968 -19.60035,5.61968 -10.05146,0 -18.00125,-3.01544 -23.84937,-9.04632 -5.84812,-6.03087 -8.77218,-14.20911 -8.77218,-24.53469 0,-10.23422 2.87837,-18.36676 8.63512,-24.39764 5.84812,-6.12225 13.66084,-9.18338 23.43817,-9.18338 9.13769,0 16.49354,2.83269 22.06753,8.49805 5.66537,5.574 8.49805,12.83846 8.49805,21.7934 z m -47.83581,-3.15251 h 33.16982 c -0.0914,-4.93435 -1.55341,-8.72649 -4.3861,-11.37642 -2.74131,-2.64993 -6.67051,-3.9749 -11.78762,-3.9749 -5.20848,0 -9.32044,1.41635 -12.33588,4.24903 -3.01544,2.83268 -4.56885,6.53345 -4.66022,11.10229 z"
       style="font-style:normal;font-variant:normal;font-weight:normal;font-stretch:normal;font-size:137.06536865px;font-family:'GT Walsheim';-inkscape-font-specification:'GT Walsheim';stroke-width:0.71388209;fill:#ffffff"
       id="path31"
       inkscape:connector-curvature="0"
       sodipodi:nodetypes="scccssscssscscscccssc" />
  </g>
</svg>
